<mxfile host="app.diagrams.net" modified="2023-03-28T18:54:38.699Z" agent="Mozilla/5.0 (Windows NT 10.0; Win64; x64) AppleWebKit/537.36 (KHTML, like Gecko) Chrome/111.0.0.0 Safari/537.36" etag="JbZEe3z5v8iReA2JItbM" version="21.1.1" type="device">
  <diagram id="C5RBs43oDa-KdzZeNtuy" name="Page-1">
    <mxGraphModel dx="3692" dy="2108" grid="1" gridSize="10" guides="1" tooltips="1" connect="1" arrows="1" fold="1" page="0" pageScale="1" pageWidth="827" pageHeight="1169" math="0" shadow="0">
      <root>
        <mxCell id="WIyWlLk6GJQsqaUBKTNV-0" />
        <mxCell id="WIyWlLk6GJQsqaUBKTNV-1" parent="WIyWlLk6GJQsqaUBKTNV-0" />
        <mxCell id="990rHB7GM0mohYppXFXk-12" value="" style="group" vertex="1" connectable="0" parent="WIyWlLk6GJQsqaUBKTNV-1">
          <mxGeometry x="-25" y="-30" width="1358" height="949" as="geometry" />
        </mxCell>
        <mxCell id="990rHB7GM0mohYppXFXk-21" value="" style="group" vertex="1" connectable="0" parent="990rHB7GM0mohYppXFXk-12">
          <mxGeometry width="1358" height="949" as="geometry" />
        </mxCell>
        <mxCell id="990rHB7GM0mohYppXFXk-8" value="Domain" style="verticalAlign=top;align=left;spacingTop=8;spacingLeft=2;spacingRight=12;shape=cube;size=10;direction=south;fontStyle=4;html=1;whiteSpace=wrap;fillColor=#fff2cc;strokeColor=#d6b656;" vertex="1" parent="990rHB7GM0mohYppXFXk-21">
          <mxGeometry width="1358" height="949" as="geometry" />
        </mxCell>
        <mxCell id="990rHB7GM0mohYppXFXk-11" value="" style="rounded=0;whiteSpace=wrap;html=1;" vertex="1" parent="990rHB7GM0mohYppXFXk-21">
          <mxGeometry x="36" y="42" width="1245" height="879" as="geometry" />
        </mxCell>
        <mxCell id="990rHB7GM0mohYppXFXk-20" value="ShoppingCartController" style="swimlane;fontStyle=1;align=center;verticalAlign=middle;childLayout=stackLayout;horizontal=1;startSize=29;horizontalStack=0;resizeParent=1;resizeParentMax=0;resizeLast=0;collapsible=0;marginBottom=0;html=1;fillColor=#f8cecc;strokeColor=#b85450;" vertex="1" parent="990rHB7GM0mohYppXFXk-21">
          <mxGeometry x="76" y="361" width="164" height="60" as="geometry" />
        </mxCell>
        <mxCell id="990rHB7GM0mohYppXFXk-40" style="edgeStyle=orthogonalEdgeStyle;rounded=0;orthogonalLoop=1;jettySize=auto;html=1;endArrow=block;endFill=1;" edge="1" parent="990rHB7GM0mohYppXFXk-21" source="990rHB7GM0mohYppXFXk-39" target="wEltk9S-PoxrdF0Q-rvV-17">
          <mxGeometry relative="1" as="geometry">
            <Array as="points">
              <mxPoint x="483" y="336" />
            </Array>
          </mxGeometry>
        </mxCell>
        <mxCell id="990rHB7GM0mohYppXFXk-39" value="NotificationController" style="swimlane;fontStyle=1;align=center;verticalAlign=middle;childLayout=stackLayout;horizontal=1;startSize=29;horizontalStack=0;resizeParent=1;resizeParentMax=0;resizeLast=0;collapsible=0;marginBottom=0;html=1;fillColor=#f8cecc;strokeColor=#b85450;" vertex="1" parent="990rHB7GM0mohYppXFXk-21">
          <mxGeometry x="425" y="348" width="127" height="60" as="geometry" />
        </mxCell>
        <mxCell id="wEltk9S-PoxrdF0Q-rvV-17" value="Notification" style="swimlane;fontStyle=1;align=center;verticalAlign=middle;childLayout=stackLayout;horizontal=1;startSize=20;horizontalStack=0;resizeParent=1;resizeParentMax=0;resizeLast=0;collapsible=0;marginBottom=0;html=1;fillColor=#ffe6cc;strokeColor=#d79b00;" parent="990rHB7GM0mohYppXFXk-21" vertex="1">
          <mxGeometry x="561" y="308" width="120" height="55" as="geometry" />
        </mxCell>
        <mxCell id="wEltk9S-PoxrdF0Q-rvV-23" value="NotificationType" style="swimlane;fontStyle=1;align=center;verticalAlign=middle;childLayout=stackLayout;horizontal=1;startSize=29;horizontalStack=0;resizeParent=1;resizeParentMax=0;resizeLast=0;collapsible=0;marginBottom=0;html=1;fillColor=#ffe6cc;strokeColor=#d79b00;" parent="990rHB7GM0mohYppXFXk-21" vertex="1">
          <mxGeometry x="561" y="404" width="120" height="55" as="geometry" />
        </mxCell>
        <mxCell id="wEltk9S-PoxrdF0Q-rvV-25" style="edgeStyle=orthogonalEdgeStyle;rounded=0;orthogonalLoop=1;jettySize=auto;html=1;startArrow=diamondThin;startFill=0;endArrow=none;endFill=0;" parent="990rHB7GM0mohYppXFXk-21" source="wEltk9S-PoxrdF0Q-rvV-17" target="wEltk9S-PoxrdF0Q-rvV-23" edge="1">
          <mxGeometry relative="1" as="geometry" />
        </mxCell>
        <mxCell id="wEltk9S-PoxrdF0Q-rvV-26" value="1...1" style="edgeLabel;html=1;align=center;verticalAlign=middle;resizable=0;points=[];" parent="wEltk9S-PoxrdF0Q-rvV-25" vertex="1" connectable="0">
          <mxGeometry x="0.7122" y="1" relative="1" as="geometry">
            <mxPoint x="12" y="-3" as="offset" />
          </mxGeometry>
        </mxCell>
        <mxCell id="990rHB7GM0mohYppXFXk-42" value="PurchaseController" style="swimlane;fontStyle=1;align=center;verticalAlign=middle;childLayout=stackLayout;horizontal=1;startSize=29;horizontalStack=0;resizeParent=1;resizeParentMax=0;resizeLast=0;collapsible=0;marginBottom=0;html=1;fillColor=#f8cecc;strokeColor=#b85450;" vertex="1" parent="990rHB7GM0mohYppXFXk-21">
          <mxGeometry x="433" y="665" width="121.75" height="60" as="geometry" />
        </mxCell>
        <mxCell id="Q86aXCvyrEORFELIP6Jt-7" value="StorePermission" style="swimlane;fontStyle=1;align=center;verticalAlign=middle;childLayout=stackLayout;horizontal=1;startSize=29;horizontalStack=0;resizeParent=1;resizeParentMax=0;resizeLast=0;collapsible=0;marginBottom=0;html=1;whiteSpace=wrap;fillColor=#ffe6cc;strokeColor=#d79b00;" parent="990rHB7GM0mohYppXFXk-21" vertex="1">
          <mxGeometry x="1142" y="299" width="109" height="55" as="geometry" />
        </mxCell>
        <mxCell id="Q86aXCvyrEORFELIP6Jt-21" value="Comment" style="swimlane;fontStyle=1;align=center;verticalAlign=middle;childLayout=stackLayout;horizontal=1;startSize=29;horizontalStack=0;resizeParent=1;resizeParentMax=0;resizeLast=0;collapsible=0;marginBottom=0;html=1;fillColor=#ffe6cc;strokeColor=#d79b00;" parent="990rHB7GM0mohYppXFXk-21" vertex="1">
          <mxGeometry x="775" y="293" width="180" height="55" as="geometry" />
        </mxCell>
        <mxCell id="Q86aXCvyrEORFELIP6Jt-26" style="edgeStyle=orthogonalEdgeStyle;rounded=0;orthogonalLoop=1;jettySize=auto;html=1;exitX=0.75;exitY=0;exitDx=0;exitDy=0;endArrow=diamondThin;endFill=1;" parent="990rHB7GM0mohYppXFXk-21" source="Q86aXCvyrEORFELIP6Jt-21" target="Q86aXCvyrEORFELIP6Jt-21" edge="1">
          <mxGeometry relative="1" as="geometry">
            <Array as="points">
              <mxPoint x="910" y="276" />
              <mxPoint x="967" y="276" />
              <mxPoint x="967" y="321" />
            </Array>
          </mxGeometry>
        </mxCell>
        <mxCell id="Q86aXCvyrEORFELIP6Jt-27" value="0...n" style="edgeLabel;html=1;align=center;verticalAlign=middle;resizable=0;points=[];" parent="Q86aXCvyrEORFELIP6Jt-26" vertex="1" connectable="0">
          <mxGeometry x="-0.0893" relative="1" as="geometry">
            <mxPoint x="17" y="56" as="offset" />
          </mxGeometry>
        </mxCell>
        <mxCell id="990rHB7GM0mohYppXFXk-46" value="StoreController" style="swimlane;fontStyle=1;align=center;verticalAlign=middle;childLayout=stackLayout;horizontal=1;startSize=29;horizontalStack=0;resizeParent=1;resizeParentMax=0;resizeLast=0;collapsible=0;marginBottom=0;html=1;fillColor=#f8cecc;strokeColor=#b85450;" vertex="1" parent="990rHB7GM0mohYppXFXk-21">
          <mxGeometry x="1093" y="439" width="112" height="60" as="geometry" />
        </mxCell>
        <mxCell id="990rHB7GM0mohYppXFXk-18" value="MemberController" style="swimlane;fontStyle=1;align=center;verticalAlign=middle;childLayout=stackLayout;horizontal=1;startSize=29;horizontalStack=0;resizeParent=1;resizeParentMax=0;resizeLast=0;collapsible=0;marginBottom=0;html=1;fillColor=#f8cecc;strokeColor=#b85450;" vertex="1" parent="990rHB7GM0mohYppXFXk-12">
          <mxGeometry x="513" y="64" width="120" height="60" as="geometry" />
        </mxCell>
        <mxCell id="wEltk9S-PoxrdF0Q-rvV-9" value="Store" style="shape=umlFrame;whiteSpace=wrap;html=1;pointerEvents=0;width=80;height=20;" parent="WIyWlLk6GJQsqaUBKTNV-1" vertex="1">
          <mxGeometry x="720" y="220" width="520" height="600" as="geometry" />
        </mxCell>
        <mxCell id="wEltk9S-PoxrdF0Q-rvV-8" value="Shopping Cart" style="shape=umlFrame;whiteSpace=wrap;html=1;pointerEvents=0;width=95;height=18;" parent="WIyWlLk6GJQsqaUBKTNV-1" vertex="1">
          <mxGeometry x="20" y="220" width="350" height="600" as="geometry" />
        </mxCell>
        <mxCell id="wEltk9S-PoxrdF0Q-rvV-16" value="Purchase" style="shape=umlFrame;whiteSpace=wrap;html=1;pointerEvents=0;width=80;height=20;" parent="WIyWlLk6GJQsqaUBKTNV-1" vertex="1">
          <mxGeometry x="390" y="460" width="310" height="360" as="geometry" />
        </mxCell>
        <mxCell id="5-eGZLtxOwIWoKAD2tOT-10" value="Member" style="swimlane;fontStyle=1;align=center;verticalAlign=middle;childLayout=stackLayout;horizontal=1;startSize=29;horizontalStack=0;resizeParent=1;resizeParentMax=0;resizeLast=0;collapsible=0;marginBottom=0;html=1;fillColor=#ffe6cc;strokeColor=#d79b00;" parent="WIyWlLk6GJQsqaUBKTNV-1" vertex="1">
          <mxGeometry x="485" y="130" width="120" height="60" as="geometry" />
        </mxCell>
        <mxCell id="wEltk9S-PoxrdF0Q-rvV-28" style="edgeStyle=orthogonalEdgeStyle;rounded=0;orthogonalLoop=1;jettySize=auto;html=1;dashed=1;endArrow=none;endFill=0;startArrow=diamondThin;startFill=1;" parent="WIyWlLk6GJQsqaUBKTNV-1" source="5-eGZLtxOwIWoKAD2tOT-10" target="wEltk9S-PoxrdF0Q-rvV-17" edge="1">
          <mxGeometry relative="1" as="geometry">
            <Array as="points">
              <mxPoint x="570" y="234" />
              <mxPoint x="596" y="234" />
            </Array>
          </mxGeometry>
        </mxCell>
        <mxCell id="wEltk9S-PoxrdF0Q-rvV-29" value="0...n" style="edgeLabel;html=1;align=center;verticalAlign=middle;resizable=0;points=[];" parent="wEltk9S-PoxrdF0Q-rvV-28" vertex="1" connectable="0">
          <mxGeometry x="0.909" y="3" relative="1" as="geometry">
            <mxPoint x="10" y="-6" as="offset" />
          </mxGeometry>
        </mxCell>
        <mxCell id="5-eGZLtxOwIWoKAD2tOT-24" value="ShoppingCart" style="swimlane;fontStyle=1;align=center;verticalAlign=middle;childLayout=stackLayout;horizontal=1;startSize=29;horizontalStack=0;resizeParent=1;resizeParentMax=0;resizeLast=0;collapsible=0;marginBottom=0;html=1;fillColor=#ffe6cc;strokeColor=#d79b00;" parent="WIyWlLk6GJQsqaUBKTNV-1" vertex="1">
          <mxGeometry x="110" y="440" width="210" height="55" as="geometry" />
        </mxCell>
        <mxCell id="5-eGZLtxOwIWoKAD2tOT-32" style="edgeStyle=orthogonalEdgeStyle;rounded=0;orthogonalLoop=1;jettySize=auto;html=1;endArrow=none;endFill=0;startArrow=diamondThin;startFill=1;dashed=1;" parent="WIyWlLk6GJQsqaUBKTNV-1" source="5-eGZLtxOwIWoKAD2tOT-10" target="5-eGZLtxOwIWoKAD2tOT-24" edge="1">
          <mxGeometry relative="1" as="geometry">
            <Array as="points">
              <mxPoint x="278" y="160" />
            </Array>
            <mxPoint x="195" y="290" as="targetPoint" />
          </mxGeometry>
        </mxCell>
        <mxCell id="5-eGZLtxOwIWoKAD2tOT-33" value="1...1" style="edgeLabel;html=1;align=center;verticalAlign=middle;resizable=0;points=[];" parent="5-eGZLtxOwIWoKAD2tOT-32" vertex="1" connectable="0">
          <mxGeometry x="0.3253" y="1" relative="1" as="geometry">
            <mxPoint x="15" y="154" as="offset" />
          </mxGeometry>
        </mxCell>
        <mxCell id="5-eGZLtxOwIWoKAD2tOT-28" value="Purchase" style="swimlane;fontStyle=1;align=center;verticalAlign=middle;childLayout=stackLayout;horizontal=1;startSize=29;horizontalStack=0;resizeParent=1;resizeParentMax=0;resizeLast=0;collapsible=0;marginBottom=0;html=1;fillColor=#ffe6cc;strokeColor=#d79b00;" parent="WIyWlLk6GJQsqaUBKTNV-1" vertex="1">
          <mxGeometry x="414" y="520" width="106.5" height="55" as="geometry" />
        </mxCell>
        <mxCell id="5-eGZLtxOwIWoKAD2tOT-38" value="Store" style="swimlane;fontStyle=1;align=center;verticalAlign=middle;childLayout=stackLayout;horizontal=1;startSize=29;horizontalStack=0;resizeParent=1;resizeParentMax=0;resizeLast=0;collapsible=0;marginBottom=0;html=1;fillColor=#ffe6cc;strokeColor=#d79b00;" parent="WIyWlLk6GJQsqaUBKTNV-1" vertex="1">
          <mxGeometry x="925" y="490" width="160" height="55" as="geometry" />
        </mxCell>
        <mxCell id="3amuEZa6ZCUIwLxiYFz3-3" value="StoreManager" style="swimlane;fontStyle=1;align=center;verticalAlign=middle;childLayout=stackLayout;horizontal=1;startSize=29;horizontalStack=0;resizeParent=1;resizeParentMax=0;resizeLast=0;collapsible=0;marginBottom=0;html=1;whiteSpace=wrap;fillColor=#ffe6cc;strokeColor=#d79b00;" parent="WIyWlLk6GJQsqaUBKTNV-1" vertex="1">
          <mxGeometry x="902" y="332" width="179" height="55" as="geometry" />
        </mxCell>
        <mxCell id="5-eGZLtxOwIWoKAD2tOT-34" style="edgeStyle=orthogonalEdgeStyle;rounded=0;orthogonalLoop=1;jettySize=auto;html=1;endArrow=none;endFill=0;startArrow=diamondThin;startFill=1;dashed=1;" parent="WIyWlLk6GJQsqaUBKTNV-1" source="5-eGZLtxOwIWoKAD2tOT-10" target="3amuEZa6ZCUIwLxiYFz3-3" edge="1">
          <mxGeometry relative="1" as="geometry">
            <Array as="points">
              <mxPoint x="1000" y="151" />
            </Array>
            <mxPoint x="1000" y="270" as="targetPoint" />
          </mxGeometry>
        </mxCell>
        <mxCell id="5-eGZLtxOwIWoKAD2tOT-35" value="0...1" style="edgeLabel;html=1;align=center;verticalAlign=middle;resizable=0;points=[];" parent="5-eGZLtxOwIWoKAD2tOT-34" connectable="0" vertex="1">
          <mxGeometry x="0.5742" y="2" relative="1" as="geometry">
            <mxPoint x="12" y="109" as="offset" />
          </mxGeometry>
        </mxCell>
        <mxCell id="3amuEZa6ZCUIwLxiYFz3-19" style="edgeStyle=orthogonalEdgeStyle;rounded=0;orthogonalLoop=1;jettySize=auto;html=1;endArrow=none;endFill=0;startArrow=diamondThin;startFill=1;" parent="WIyWlLk6GJQsqaUBKTNV-1" source="5-eGZLtxOwIWoKAD2tOT-38" target="3amuEZa6ZCUIwLxiYFz3-3" edge="1">
          <mxGeometry relative="1" as="geometry">
            <Array as="points">
              <mxPoint x="1010" y="450" />
              <mxPoint x="1010" y="450" />
            </Array>
          </mxGeometry>
        </mxCell>
        <mxCell id="3amuEZa6ZCUIwLxiYFz3-20" value="1...1" style="edgeLabel;html=1;align=center;verticalAlign=middle;resizable=0;points=[];" parent="3amuEZa6ZCUIwLxiYFz3-19" connectable="0" vertex="1">
          <mxGeometry x="-0.6989" relative="1" as="geometry">
            <mxPoint x="12" y="-4" as="offset" />
          </mxGeometry>
        </mxCell>
        <mxCell id="3amuEZa6ZCUIwLxiYFz3-34" value="Product" style="swimlane;fontStyle=1;align=center;verticalAlign=middle;childLayout=stackLayout;horizontal=1;startSize=29;horizontalStack=0;resizeParent=1;resizeParentMax=0;resizeLast=0;collapsible=0;marginBottom=0;html=1;fillColor=#ffe6cc;strokeColor=#d79b00;" parent="WIyWlLk6GJQsqaUBKTNV-1" vertex="1">
          <mxGeometry x="750" y="490" width="100" height="60" as="geometry" />
        </mxCell>
        <mxCell id="3amuEZa6ZCUIwLxiYFz3-36" style="edgeStyle=orthogonalEdgeStyle;rounded=0;orthogonalLoop=1;jettySize=auto;html=1;endArrow=none;endFill=0;startArrow=diamondThin;startFill=1;" parent="WIyWlLk6GJQsqaUBKTNV-1" source="5-eGZLtxOwIWoKAD2tOT-38" target="3amuEZa6ZCUIwLxiYFz3-34" edge="1">
          <mxGeometry relative="1" as="geometry">
            <Array as="points">
              <mxPoint x="890" y="520" />
              <mxPoint x="890" y="520" />
            </Array>
          </mxGeometry>
        </mxCell>
        <mxCell id="3amuEZa6ZCUIwLxiYFz3-37" value="0...n" style="edgeLabel;html=1;align=center;verticalAlign=middle;resizable=0;points=[];" parent="3amuEZa6ZCUIwLxiYFz3-36" vertex="1" connectable="0">
          <mxGeometry x="0.8151" relative="1" as="geometry">
            <mxPoint x="8" y="9" as="offset" />
          </mxGeometry>
        </mxCell>
        <mxCell id="wEltk9S-PoxrdF0Q-rvV-2" value="DiscountRule?" style="swimlane;fontStyle=1;align=center;verticalAlign=middle;childLayout=stackLayout;horizontal=1;startSize=29;horizontalStack=0;resizeParent=1;resizeParentMax=0;resizeLast=0;collapsible=0;marginBottom=0;html=1;fillColor=#ffe6cc;strokeColor=#d79b00;" parent="WIyWlLk6GJQsqaUBKTNV-1" vertex="1">
          <mxGeometry x="1130" y="490" width="100" height="55" as="geometry" />
        </mxCell>
        <mxCell id="wEltk9S-PoxrdF0Q-rvV-3" style="edgeStyle=orthogonalEdgeStyle;rounded=0;orthogonalLoop=1;jettySize=auto;html=1;endArrow=none;endFill=0;startArrow=diamondThin;startFill=1;" parent="WIyWlLk6GJQsqaUBKTNV-1" source="5-eGZLtxOwIWoKAD2tOT-38" target="wEltk9S-PoxrdF0Q-rvV-2" edge="1">
          <mxGeometry relative="1" as="geometry" />
        </mxCell>
        <mxCell id="wEltk9S-PoxrdF0Q-rvV-4" value="0...n" style="edgeLabel;html=1;align=center;verticalAlign=middle;resizable=0;points=[];" parent="wEltk9S-PoxrdF0Q-rvV-3" vertex="1" connectable="0">
          <mxGeometry x="-0.7959" y="1" relative="1" as="geometry">
            <mxPoint x="26" y="-9" as="offset" />
          </mxGeometry>
        </mxCell>
        <mxCell id="wEltk9S-PoxrdF0Q-rvV-10" value="Member" style="shape=umlFrame;whiteSpace=wrap;html=1;pointerEvents=0;width=80;height=20;" parent="WIyWlLk6GJQsqaUBKTNV-1" vertex="1">
          <mxGeometry x="20" y="22" width="1220" height="178" as="geometry" />
        </mxCell>
        <mxCell id="wEltk9S-PoxrdF0Q-rvV-12" value="Notification" style="shape=umlFrame;whiteSpace=wrap;html=1;pointerEvents=0;width=80;height=20;" parent="WIyWlLk6GJQsqaUBKTNV-1" vertex="1">
          <mxGeometry x="390" y="220" width="310" height="220" as="geometry" />
        </mxCell>
        <mxCell id="wEltk9S-PoxrdF0Q-rvV-14" value="" style="edgeStyle=orthogonalEdgeStyle;rounded=0;orthogonalLoop=1;jettySize=auto;html=1;endArrow=none;endFill=0;startArrow=diamondThin;startFill=1;dashed=1;" parent="WIyWlLk6GJQsqaUBKTNV-1" source="5-eGZLtxOwIWoKAD2tOT-10" target="5-eGZLtxOwIWoKAD2tOT-28" edge="1">
          <mxGeometry relative="1" as="geometry">
            <Array as="points">
              <mxPoint x="379" y="176" />
              <mxPoint x="379" y="550" />
            </Array>
            <mxPoint x="235" y="340" as="sourcePoint" />
            <mxPoint x="130" y="805" as="targetPoint" />
          </mxGeometry>
        </mxCell>
        <mxCell id="9OOohbVVuucm2zmM9hxW-19" value="0...n" style="edgeLabel;html=1;align=center;verticalAlign=middle;resizable=0;points=[];" parent="wEltk9S-PoxrdF0Q-rvV-14" connectable="0" vertex="1">
          <mxGeometry x="0.9258" relative="1" as="geometry">
            <mxPoint x="8" y="-9" as="offset" />
          </mxGeometry>
        </mxCell>
        <mxCell id="9OOohbVVuucm2zmM9hxW-42" style="edgeStyle=orthogonalEdgeStyle;rounded=0;orthogonalLoop=1;jettySize=auto;html=1;startArrow=diamondThin;startFill=0;endArrow=none;endFill=0;" parent="WIyWlLk6GJQsqaUBKTNV-1" source="wEltk9S-PoxrdF0Q-rvV-32" target="3amuEZa6ZCUIwLxiYFz3-34" edge="1">
          <mxGeometry relative="1" as="geometry">
            <Array as="points">
              <mxPoint x="930" y="680" />
              <mxPoint x="840" y="680" />
            </Array>
          </mxGeometry>
        </mxCell>
        <mxCell id="L2OGs5nIe2zohlXT7zx_-5" value="1...1" style="edgeLabel;html=1;align=center;verticalAlign=middle;resizable=0;points=[];" parent="9OOohbVVuucm2zmM9hxW-42" connectable="0" vertex="1">
          <mxGeometry x="0.8278" y="-1" relative="1" as="geometry">
            <mxPoint x="-2" y="-10" as="offset" />
          </mxGeometry>
        </mxCell>
        <mxCell id="wEltk9S-PoxrdF0Q-rvV-32" value="Auction" style="swimlane;fontStyle=1;align=center;verticalAlign=middle;childLayout=stackLayout;horizontal=1;startSize=29;horizontalStack=0;resizeParent=1;resizeParentMax=0;resizeLast=0;collapsible=0;marginBottom=0;html=1;fillColor=#ffe6cc;strokeColor=#d79b00;" parent="WIyWlLk6GJQsqaUBKTNV-1" vertex="1">
          <mxGeometry x="900" y="600" width="100" height="60" as="geometry" />
        </mxCell>
        <mxCell id="wEltk9S-PoxrdF0Q-rvV-33" style="edgeStyle=orthogonalEdgeStyle;rounded=0;orthogonalLoop=1;jettySize=auto;html=1;endArrow=none;endFill=0;startArrow=diamondThin;startFill=1;" parent="WIyWlLk6GJQsqaUBKTNV-1" source="5-eGZLtxOwIWoKAD2tOT-38" target="wEltk9S-PoxrdF0Q-rvV-32" edge="1">
          <mxGeometry relative="1" as="geometry">
            <Array as="points">
              <mxPoint x="950" y="590" />
              <mxPoint x="950" y="590" />
            </Array>
          </mxGeometry>
        </mxCell>
        <mxCell id="wEltk9S-PoxrdF0Q-rvV-34" value="0...n" style="edgeLabel;html=1;align=center;verticalAlign=middle;resizable=0;points=[];" parent="wEltk9S-PoxrdF0Q-rvV-33" vertex="1" connectable="0">
          <mxGeometry x="0.89" y="1" relative="1" as="geometry">
            <mxPoint x="19" y="-6" as="offset" />
          </mxGeometry>
        </mxCell>
        <mxCell id="9OOohbVVuucm2zmM9hxW-10" value="ShoppingBasket" style="swimlane;fontStyle=1;align=center;verticalAlign=middle;childLayout=stackLayout;horizontal=1;startSize=29;horizontalStack=0;resizeParent=1;resizeParentMax=0;resizeLast=0;collapsible=0;marginBottom=0;html=1;fillColor=#ffe6cc;strokeColor=#d79b00;" parent="WIyWlLk6GJQsqaUBKTNV-1" vertex="1">
          <mxGeometry x="110" y="529" width="210" height="55" as="geometry" />
        </mxCell>
        <mxCell id="9OOohbVVuucm2zmM9hxW-15" style="edgeStyle=orthogonalEdgeStyle;rounded=0;orthogonalLoop=1;jettySize=auto;html=1;startArrow=diamondThin;startFill=1;endArrow=none;endFill=0;" parent="WIyWlLk6GJQsqaUBKTNV-1" source="5-eGZLtxOwIWoKAD2tOT-24" target="9OOohbVVuucm2zmM9hxW-10" edge="1">
          <mxGeometry relative="1" as="geometry">
            <Array as="points">
              <mxPoint x="200" y="510" />
              <mxPoint x="200" y="510" />
            </Array>
          </mxGeometry>
        </mxCell>
        <mxCell id="9OOohbVVuucm2zmM9hxW-16" value="0...n" style="edgeLabel;html=1;align=center;verticalAlign=middle;resizable=0;points=[];" parent="9OOohbVVuucm2zmM9hxW-15" connectable="0" vertex="1">
          <mxGeometry x="0.4324" y="1" relative="1" as="geometry">
            <mxPoint x="11" y="1" as="offset" />
          </mxGeometry>
        </mxCell>
        <mxCell id="9OOohbVVuucm2zmM9hxW-12" value="ShoppingItem" style="swimlane;fontStyle=1;align=center;verticalAlign=middle;childLayout=stackLayout;horizontal=1;startSize=29;horizontalStack=0;resizeParent=1;resizeParentMax=0;resizeLast=0;collapsible=0;marginBottom=0;html=1;fillColor=#ffe6cc;strokeColor=#d79b00;" parent="WIyWlLk6GJQsqaUBKTNV-1" vertex="1">
          <mxGeometry x="170" y="617" width="100" height="60" as="geometry" />
        </mxCell>
        <mxCell id="3amuEZa6ZCUIwLxiYFz3-40" style="edgeStyle=orthogonalEdgeStyle;rounded=0;orthogonalLoop=1;jettySize=auto;html=1;endArrow=none;endFill=0;startArrow=diamondThin;startFill=0;dashed=1;" parent="WIyWlLk6GJQsqaUBKTNV-1" source="9OOohbVVuucm2zmM9hxW-12" target="3amuEZa6ZCUIwLxiYFz3-34" edge="1">
          <mxGeometry relative="1" as="geometry">
            <mxPoint x="200" y="670" as="sourcePoint" />
            <Array as="points">
              <mxPoint x="220" y="740" />
              <mxPoint x="770" y="740" />
            </Array>
          </mxGeometry>
        </mxCell>
        <mxCell id="Q86aXCvyrEORFELIP6Jt-33" value="1...1" style="edgeLabel;html=1;align=center;verticalAlign=middle;resizable=0;points=[];" parent="3amuEZa6ZCUIwLxiYFz3-40" vertex="1" connectable="0">
          <mxGeometry x="-0.9459" y="-1" relative="1" as="geometry">
            <mxPoint x="549" y="-139" as="offset" />
          </mxGeometry>
        </mxCell>
        <mxCell id="3amuEZa6ZCUIwLxiYFz3-38" style="edgeStyle=orthogonalEdgeStyle;rounded=0;orthogonalLoop=1;jettySize=auto;html=1;endArrow=none;endFill=0;startArrow=diamondThin;startFill=0;" parent="WIyWlLk6GJQsqaUBKTNV-1" source="9OOohbVVuucm2zmM9hxW-10" target="9OOohbVVuucm2zmM9hxW-12" edge="1">
          <mxGeometry relative="1" as="geometry">
            <Array as="points">
              <mxPoint x="200" y="630" />
              <mxPoint x="200" y="630" />
            </Array>
            <mxPoint x="620.0344827586207" y="617" as="targetPoint" />
          </mxGeometry>
        </mxCell>
        <mxCell id="9OOohbVVuucm2zmM9hxW-14" value="0...n" style="edgeLabel;html=1;align=center;verticalAlign=middle;resizable=0;points=[];" parent="3amuEZa6ZCUIwLxiYFz3-38" connectable="0" vertex="1">
          <mxGeometry x="0.6727" y="-1" relative="1" as="geometry">
            <mxPoint x="14" y="-3" as="offset" />
          </mxGeometry>
        </mxCell>
        <mxCell id="9OOohbVVuucm2zmM9hxW-18" value="PurchaseItem" style="swimlane;fontStyle=1;align=center;verticalAlign=middle;childLayout=stackLayout;horizontal=1;startSize=29;horizontalStack=0;resizeParent=1;resizeParentMax=0;resizeLast=0;collapsible=0;marginBottom=0;html=1;fillColor=#ffe6cc;strokeColor=#d79b00;" parent="WIyWlLk6GJQsqaUBKTNV-1" vertex="1">
          <mxGeometry x="560" y="620" width="100" height="60" as="geometry" />
        </mxCell>
        <mxCell id="9OOohbVVuucm2zmM9hxW-27" style="edgeStyle=orthogonalEdgeStyle;rounded=0;orthogonalLoop=1;jettySize=auto;html=1;startArrow=diamondThin;startFill=0;endArrow=none;endFill=0;dashed=1;" parent="WIyWlLk6GJQsqaUBKTNV-1" source="9OOohbVVuucm2zmM9hxW-24" target="5-eGZLtxOwIWoKAD2tOT-10" edge="1">
          <mxGeometry relative="1" as="geometry">
            <Array as="points">
              <mxPoint x="709" y="410" />
              <mxPoint x="709" y="180" />
            </Array>
            <mxPoint x="235" y="310" as="targetPoint" />
          </mxGeometry>
        </mxCell>
        <mxCell id="9OOohbVVuucm2zmM9hxW-28" value="1...1" style="edgeLabel;html=1;align=center;verticalAlign=middle;resizable=0;points=[];" parent="9OOohbVVuucm2zmM9hxW-27" connectable="0" vertex="1">
          <mxGeometry x="0.9755" y="-3" relative="1" as="geometry">
            <mxPoint x="10" y="15" as="offset" />
          </mxGeometry>
        </mxCell>
        <mxCell id="9OOohbVVuucm2zmM9hxW-24" value="Review" style="swimlane;fontStyle=1;align=center;verticalAlign=middle;childLayout=stackLayout;horizontal=1;startSize=29;horizontalStack=0;resizeParent=1;resizeParentMax=0;resizeLast=0;collapsible=0;marginBottom=0;html=1;fillColor=#ffe6cc;strokeColor=#d79b00;" parent="WIyWlLk6GJQsqaUBKTNV-1" vertex="1">
          <mxGeometry x="750" y="380" width="100" height="60" as="geometry" />
        </mxCell>
        <mxCell id="9OOohbVVuucm2zmM9hxW-22" style="edgeStyle=orthogonalEdgeStyle;rounded=0;orthogonalLoop=1;jettySize=auto;html=1;startArrow=diamondThin;startFill=1;endArrow=none;endFill=0;" parent="WIyWlLk6GJQsqaUBKTNV-1" source="5-eGZLtxOwIWoKAD2tOT-28" target="9OOohbVVuucm2zmM9hxW-18" edge="1">
          <mxGeometry relative="1" as="geometry">
            <mxPoint x="609.9999999999998" y="575" as="sourcePoint" />
          </mxGeometry>
        </mxCell>
        <mxCell id="9OOohbVVuucm2zmM9hxW-23" value="1..n" style="edgeLabel;html=1;align=center;verticalAlign=middle;resizable=0;points=[];" parent="9OOohbVVuucm2zmM9hxW-22" connectable="0" vertex="1">
          <mxGeometry x="0.6839" y="1" relative="1" as="geometry">
            <mxPoint x="11" y="16" as="offset" />
          </mxGeometry>
        </mxCell>
        <mxCell id="9OOohbVVuucm2zmM9hxW-33" style="edgeStyle=orthogonalEdgeStyle;rounded=0;orthogonalLoop=1;jettySize=auto;html=1;startArrow=diamondThin;startFill=0;endArrow=none;endFill=0;" parent="WIyWlLk6GJQsqaUBKTNV-1" source="9OOohbVVuucm2zmM9hxW-29" target="wEltk9S-PoxrdF0Q-rvV-32" edge="1">
          <mxGeometry relative="1" as="geometry" />
        </mxCell>
        <mxCell id="Q86aXCvyrEORFELIP6Jt-35" value="0...n" style="edgeLabel;html=1;align=center;verticalAlign=middle;resizable=0;points=[];" parent="9OOohbVVuucm2zmM9hxW-33" vertex="1" connectable="0">
          <mxGeometry x="0.8107" y="1" relative="1" as="geometry">
            <mxPoint x="13" as="offset" />
          </mxGeometry>
        </mxCell>
        <mxCell id="9OOohbVVuucm2zmM9hxW-29" value="AuctionBid" style="swimlane;fontStyle=1;align=center;verticalAlign=middle;childLayout=stackLayout;horizontal=1;startSize=29;horizontalStack=0;resizeParent=1;resizeParentMax=0;resizeLast=0;collapsible=0;marginBottom=0;html=1;fillColor=#ffe6cc;strokeColor=#d79b00;" parent="WIyWlLk6GJQsqaUBKTNV-1" vertex="1">
          <mxGeometry x="900" y="730" width="100" height="60" as="geometry" />
        </mxCell>
        <mxCell id="9OOohbVVuucm2zmM9hxW-25" style="edgeStyle=orthogonalEdgeStyle;rounded=0;orthogonalLoop=1;jettySize=auto;html=1;startArrow=diamondThin;startFill=1;endArrow=none;endFill=0;" parent="WIyWlLk6GJQsqaUBKTNV-1" source="3amuEZa6ZCUIwLxiYFz3-34" target="9OOohbVVuucm2zmM9hxW-24" edge="1">
          <mxGeometry relative="1" as="geometry">
            <Array as="points" />
          </mxGeometry>
        </mxCell>
        <mxCell id="9OOohbVVuucm2zmM9hxW-26" value="0...n" style="edgeLabel;html=1;align=center;verticalAlign=middle;resizable=0;points=[];" parent="9OOohbVVuucm2zmM9hxW-25" connectable="0" vertex="1">
          <mxGeometry x="0.737" relative="1" as="geometry">
            <mxPoint x="-1" y="5" as="offset" />
          </mxGeometry>
        </mxCell>
        <mxCell id="9OOohbVVuucm2zmM9hxW-36" style="edgeStyle=orthogonalEdgeStyle;rounded=0;orthogonalLoop=1;jettySize=auto;html=1;startArrow=none;startFill=0;endArrow=diamondThin;endFill=1;" parent="WIyWlLk6GJQsqaUBKTNV-1" source="9OOohbVVuucm2zmM9hxW-34" target="5-eGZLtxOwIWoKAD2tOT-38" edge="1">
          <mxGeometry relative="1" as="geometry">
            <Array as="points">
              <mxPoint x="1070" y="590" />
              <mxPoint x="1070" y="590" />
            </Array>
          </mxGeometry>
        </mxCell>
        <mxCell id="L2OGs5nIe2zohlXT7zx_-6" value="0...n" style="edgeLabel;html=1;align=center;verticalAlign=middle;resizable=0;points=[];" parent="9OOohbVVuucm2zmM9hxW-36" connectable="0" vertex="1">
          <mxGeometry x="-0.7818" relative="1" as="geometry">
            <mxPoint x="13" y="-2" as="offset" />
          </mxGeometry>
        </mxCell>
        <mxCell id="9OOohbVVuucm2zmM9hxW-43" style="edgeStyle=orthogonalEdgeStyle;rounded=0;orthogonalLoop=1;jettySize=auto;html=1;startArrow=diamondThin;startFill=0;endArrow=none;endFill=0;" parent="WIyWlLk6GJQsqaUBKTNV-1" source="9OOohbVVuucm2zmM9hxW-34" target="3amuEZa6ZCUIwLxiYFz3-34" edge="1">
          <mxGeometry relative="1" as="geometry">
            <Array as="points">
              <mxPoint x="1070" y="700" />
              <mxPoint x="800" y="700" />
            </Array>
          </mxGeometry>
        </mxCell>
        <mxCell id="L2OGs5nIe2zohlXT7zx_-1" value="1...1" style="edgeLabel;html=1;align=center;verticalAlign=middle;resizable=0;points=[];" parent="9OOohbVVuucm2zmM9hxW-43" connectable="0" vertex="1">
          <mxGeometry x="0.9584" y="-1" relative="1" as="geometry">
            <mxPoint as="offset" />
          </mxGeometry>
        </mxCell>
        <mxCell id="9OOohbVVuucm2zmM9hxW-34" value="Raffle" style="swimlane;fontStyle=1;align=center;verticalAlign=middle;childLayout=stackLayout;horizontal=1;startSize=29;horizontalStack=0;resizeParent=1;resizeParentMax=0;resizeLast=0;collapsible=0;marginBottom=0;html=1;fillColor=#ffe6cc;strokeColor=#d79b00;" parent="WIyWlLk6GJQsqaUBKTNV-1" vertex="1">
          <mxGeometry x="1040" y="600" width="100" height="60" as="geometry" />
        </mxCell>
        <mxCell id="9OOohbVVuucm2zmM9hxW-37" style="edgeStyle=orthogonalEdgeStyle;rounded=0;orthogonalLoop=1;jettySize=auto;html=1;startArrow=diamondThin;startFill=0;endArrow=none;endFill=0;" parent="WIyWlLk6GJQsqaUBKTNV-1" source="9OOohbVVuucm2zmM9hxW-35" target="9OOohbVVuucm2zmM9hxW-34" edge="1">
          <mxGeometry relative="1" as="geometry" />
        </mxCell>
        <mxCell id="Q86aXCvyrEORFELIP6Jt-34" value="0...n" style="edgeLabel;html=1;align=center;verticalAlign=middle;resizable=0;points=[];" parent="9OOohbVVuucm2zmM9hxW-37" vertex="1" connectable="0">
          <mxGeometry x="0.6857" y="-1" relative="1" as="geometry">
            <mxPoint x="11" y="-4" as="offset" />
          </mxGeometry>
        </mxCell>
        <mxCell id="9OOohbVVuucm2zmM9hxW-35" value="RaffleBid" style="swimlane;fontStyle=1;align=center;verticalAlign=middle;childLayout=stackLayout;horizontal=1;startSize=29;horizontalStack=0;resizeParent=1;resizeParentMax=0;resizeLast=0;collapsible=0;marginBottom=0;html=1;fillColor=#ffe6cc;strokeColor=#d79b00;" parent="WIyWlLk6GJQsqaUBKTNV-1" vertex="1">
          <mxGeometry x="1040" y="730" width="100" height="60" as="geometry" />
        </mxCell>
        <mxCell id="Q86aXCvyrEORFELIP6Jt-12" style="edgeStyle=orthogonalEdgeStyle;rounded=0;orthogonalLoop=1;jettySize=auto;html=1;endArrow=none;endFill=0;startArrow=diamondThin;startFill=0;" parent="WIyWlLk6GJQsqaUBKTNV-1" target="Q86aXCvyrEORFELIP6Jt-7" edge="1">
          <mxGeometry relative="1" as="geometry">
            <mxPoint x="1081" y="373.9999999999998" as="sourcePoint" />
          </mxGeometry>
        </mxCell>
        <mxCell id="Q86aXCvyrEORFELIP6Jt-13" value="0...n" style="edgeLabel;html=1;align=center;verticalAlign=middle;resizable=0;points=[];" parent="Q86aXCvyrEORFELIP6Jt-12" vertex="1" connectable="0">
          <mxGeometry x="-0.7905" y="-1" relative="1" as="geometry">
            <mxPoint x="89" y="-43" as="offset" />
          </mxGeometry>
        </mxCell>
        <mxCell id="Q86aXCvyrEORFELIP6Jt-15" style="edgeStyle=orthogonalEdgeStyle;rounded=0;orthogonalLoop=1;jettySize=auto;html=1;endArrow=diamondThin;endFill=1;" parent="WIyWlLk6GJQsqaUBKTNV-1" source="3amuEZa6ZCUIwLxiYFz3-3" target="3amuEZa6ZCUIwLxiYFz3-3" edge="1">
          <mxGeometry relative="1" as="geometry">
            <Array as="points">
              <mxPoint x="1065" y="311" />
              <mxPoint x="1109" y="311" />
              <mxPoint x="1109" y="347" />
            </Array>
          </mxGeometry>
        </mxCell>
        <mxCell id="Q86aXCvyrEORFELIP6Jt-16" value="0...n" style="edgeLabel;html=1;align=center;verticalAlign=middle;resizable=0;points=[];" parent="Q86aXCvyrEORFELIP6Jt-15" vertex="1" connectable="0">
          <mxGeometry x="-0.0391" y="-2" relative="1" as="geometry">
            <mxPoint x="-28" y="8" as="offset" />
          </mxGeometry>
        </mxCell>
        <mxCell id="Q86aXCvyrEORFELIP6Jt-22" style="edgeStyle=orthogonalEdgeStyle;rounded=0;orthogonalLoop=1;jettySize=auto;html=1;endArrow=none;endFill=0;startArrow=diamondThin;startFill=0;dashed=1;" parent="WIyWlLk6GJQsqaUBKTNV-1" source="Q86aXCvyrEORFELIP6Jt-21" target="5-eGZLtxOwIWoKAD2tOT-10" edge="1">
          <mxGeometry relative="1" as="geometry">
            <Array as="points">
              <mxPoint x="829" y="165" />
            </Array>
          </mxGeometry>
        </mxCell>
        <mxCell id="Q86aXCvyrEORFELIP6Jt-23" value="1...1" style="edgeLabel;html=1;align=center;verticalAlign=middle;resizable=0;points=[];" parent="Q86aXCvyrEORFELIP6Jt-22" vertex="1" connectable="0">
          <mxGeometry x="-0.9703" relative="1" as="geometry">
            <mxPoint x="-209" y="-125" as="offset" />
          </mxGeometry>
        </mxCell>
        <mxCell id="990rHB7GM0mohYppXFXk-1" value="Member" style="ellipse;whiteSpace=wrap;html=1;dashed=1;fillColor=#ffe6cc;strokeColor=#d79b00;" vertex="1" parent="WIyWlLk6GJQsqaUBKTNV-1">
          <mxGeometry x="976" y="850" width="83" height="32" as="geometry" />
        </mxCell>
        <mxCell id="Q86aXCvyrEORFELIP6Jt-24" style="edgeStyle=orthogonalEdgeStyle;rounded=0;orthogonalLoop=1;jettySize=auto;html=1;endArrow=none;endFill=0;startArrow=diamondThin;startFill=1;" parent="WIyWlLk6GJQsqaUBKTNV-1" source="9OOohbVVuucm2zmM9hxW-24" target="Q86aXCvyrEORFELIP6Jt-21" edge="1">
          <mxGeometry relative="1" as="geometry">
            <mxPoint x="838" y="357" as="targetPoint" />
            <Array as="points">
              <mxPoint x="800" y="354" />
              <mxPoint x="800" y="354" />
            </Array>
          </mxGeometry>
        </mxCell>
        <mxCell id="Q86aXCvyrEORFELIP6Jt-25" value="0...n" style="edgeLabel;html=1;align=center;verticalAlign=middle;resizable=0;points=[];" parent="Q86aXCvyrEORFELIP6Jt-24" vertex="1" connectable="0">
          <mxGeometry x="-0.3395" y="1" relative="1" as="geometry">
            <mxPoint x="13" y="-13" as="offset" />
          </mxGeometry>
        </mxCell>
        <mxCell id="990rHB7GM0mohYppXFXk-3" style="edgeStyle=orthogonalEdgeStyle;rounded=0;orthogonalLoop=1;jettySize=auto;html=1;startArrow=diamondThin;startFill=0;endArrow=none;endFill=0;dashed=1;" edge="1" parent="WIyWlLk6GJQsqaUBKTNV-1" source="9OOohbVVuucm2zmM9hxW-29" target="990rHB7GM0mohYppXFXk-1">
          <mxGeometry relative="1" as="geometry">
            <Array as="points">
              <mxPoint x="950" y="828" />
              <mxPoint x="1005" y="828" />
            </Array>
          </mxGeometry>
        </mxCell>
        <mxCell id="990rHB7GM0mohYppXFXk-4" value="1...1" style="edgeLabel;html=1;align=center;verticalAlign=middle;resizable=0;points=[];" vertex="1" connectable="0" parent="990rHB7GM0mohYppXFXk-3">
          <mxGeometry x="0.3923" y="2" relative="1" as="geometry">
            <mxPoint x="-2" y="18" as="offset" />
          </mxGeometry>
        </mxCell>
        <mxCell id="990rHB7GM0mohYppXFXk-6" style="edgeStyle=orthogonalEdgeStyle;rounded=0;orthogonalLoop=1;jettySize=auto;html=1;dashed=1;startArrow=diamondThin;startFill=0;endArrow=none;endFill=0;" edge="1" parent="WIyWlLk6GJQsqaUBKTNV-1" source="9OOohbVVuucm2zmM9hxW-35" target="990rHB7GM0mohYppXFXk-1">
          <mxGeometry relative="1" as="geometry">
            <Array as="points">
              <mxPoint x="1090" y="826" />
              <mxPoint x="1030" y="826" />
            </Array>
          </mxGeometry>
        </mxCell>
        <mxCell id="990rHB7GM0mohYppXFXk-7" value="1...1" style="edgeLabel;html=1;align=center;verticalAlign=middle;resizable=0;points=[];" vertex="1" connectable="0" parent="990rHB7GM0mohYppXFXk-6">
          <mxGeometry x="0.5314" y="1" relative="1" as="geometry">
            <mxPoint x="9" y="16" as="offset" />
          </mxGeometry>
        </mxCell>
        <mxCell id="990rHB7GM0mohYppXFXk-19" style="edgeStyle=orthogonalEdgeStyle;rounded=0;orthogonalLoop=1;jettySize=auto;html=1;endArrow=block;endFill=1;" edge="1" parent="WIyWlLk6GJQsqaUBKTNV-1" source="990rHB7GM0mohYppXFXk-18" target="5-eGZLtxOwIWoKAD2tOT-10">
          <mxGeometry relative="1" as="geometry">
            <Array as="points">
              <mxPoint x="548" y="122" />
              <mxPoint x="548" y="122" />
            </Array>
          </mxGeometry>
        </mxCell>
        <mxCell id="990rHB7GM0mohYppXFXk-41" style="edgeStyle=orthogonalEdgeStyle;rounded=0;orthogonalLoop=1;jettySize=auto;html=1;" edge="1" parent="WIyWlLk6GJQsqaUBKTNV-1" source="990rHB7GM0mohYppXFXk-20" target="5-eGZLtxOwIWoKAD2tOT-24">
          <mxGeometry relative="1" as="geometry">
            <Array as="points" />
          </mxGeometry>
        </mxCell>
        <mxCell id="990rHB7GM0mohYppXFXk-43" style="edgeStyle=orthogonalEdgeStyle;rounded=0;orthogonalLoop=1;jettySize=auto;html=1;" edge="1" parent="WIyWlLk6GJQsqaUBKTNV-1" source="990rHB7GM0mohYppXFXk-42" target="5-eGZLtxOwIWoKAD2tOT-28">
          <mxGeometry relative="1" as="geometry">
            <Array as="points">
              <mxPoint x="467" y="624" />
              <mxPoint x="467" y="624" />
            </Array>
          </mxGeometry>
        </mxCell>
        <mxCell id="990rHB7GM0mohYppXFXk-47" style="edgeStyle=orthogonalEdgeStyle;rounded=0;orthogonalLoop=1;jettySize=auto;html=1;endArrow=block;endFill=1;" edge="1" parent="WIyWlLk6GJQsqaUBKTNV-1" source="990rHB7GM0mohYppXFXk-46" target="5-eGZLtxOwIWoKAD2tOT-38">
          <mxGeometry relative="1" as="geometry">
            <Array as="points">
              <mxPoint x="1048" y="443" />
            </Array>
          </mxGeometry>
        </mxCell>
        <mxCell id="990rHB7GM0mohYppXFXk-65" value="" style="group" vertex="1" connectable="0" parent="WIyWlLk6GJQsqaUBKTNV-1">
          <mxGeometry x="1358" y="-59" width="1245" height="978" as="geometry" />
        </mxCell>
        <mxCell id="990rHB7GM0mohYppXFXk-66" value="Service Layer" style="verticalAlign=top;align=left;spacingTop=8;spacingLeft=2;spacingRight=12;shape=cube;size=10;direction=south;fontStyle=4;html=1;whiteSpace=wrap;fillColor=#dae8fc;strokeColor=#6c8ebf;" vertex="1" parent="990rHB7GM0mohYppXFXk-65">
          <mxGeometry x="150.5" y="30" width="580" height="948" as="geometry" />
        </mxCell>
        <mxCell id="990rHB7GM0mohYppXFXk-67" value="" style="rounded=0;whiteSpace=wrap;html=1;" vertex="1" parent="990rHB7GM0mohYppXFXk-65">
          <mxGeometry x="165.82" y="72" width="536.18" height="888" as="geometry" />
        </mxCell>
        <mxCell id="990rHB7GM0mohYppXFXk-86" value="MemberController" style="ellipse;whiteSpace=wrap;html=1;dashed=1;fillColor=#f8cecc;strokeColor=#b85450;" vertex="1" parent="990rHB7GM0mohYppXFXk-65">
          <mxGeometry x="-3" y="301" width="117" height="32" as="geometry" />
        </mxCell>
        <mxCell id="990rHB7GM0mohYppXFXk-91" style="edgeStyle=orthogonalEdgeStyle;rounded=0;orthogonalLoop=1;jettySize=auto;html=1;endArrow=block;endFill=1;" edge="1" parent="990rHB7GM0mohYppXFXk-65" source="990rHB7GM0mohYppXFXk-87" target="990rHB7GM0mohYppXFXk-86">
          <mxGeometry relative="1" as="geometry">
            <Array as="points">
              <mxPoint x="239" y="250" />
              <mxPoint x="239" y="320" />
            </Array>
          </mxGeometry>
        </mxCell>
        <mxCell id="990rHB7GM0mohYppXFXk-87" value="AuthService" style="swimlane;fontStyle=1;align=center;verticalAlign=middle;childLayout=stackLayout;horizontal=1;startSize=29;horizontalStack=0;resizeParent=1;resizeParentMax=0;resizeLast=0;collapsible=0;marginBottom=0;html=1;whiteSpace=wrap;fillColor=#b1ddf0;strokeColor=#10739e;" vertex="1" parent="990rHB7GM0mohYppXFXk-65">
          <mxGeometry x="342.5" y="221" width="109" height="55" as="geometry" />
        </mxCell>
        <mxCell id="990rHB7GM0mohYppXFXk-94" style="edgeStyle=orthogonalEdgeStyle;rounded=0;orthogonalLoop=1;jettySize=auto;html=1;endArrow=block;endFill=1;" edge="1" parent="990rHB7GM0mohYppXFXk-65" source="990rHB7GM0mohYppXFXk-88" target="990rHB7GM0mohYppXFXk-86">
          <mxGeometry relative="1" as="geometry">
            <Array as="points">
              <mxPoint x="239" y="392" />
              <mxPoint x="239" y="320" />
            </Array>
          </mxGeometry>
        </mxCell>
        <mxCell id="990rHB7GM0mohYppXFXk-101" style="edgeStyle=orthogonalEdgeStyle;rounded=0;orthogonalLoop=1;jettySize=auto;html=1;endArrow=block;endFill=1;" edge="1" parent="990rHB7GM0mohYppXFXk-65" source="990rHB7GM0mohYppXFXk-88" target="990rHB7GM0mohYppXFXk-100">
          <mxGeometry relative="1" as="geometry">
            <Array as="points">
              <mxPoint x="197.5" y="406" />
              <mxPoint x="197.5" y="406" />
            </Array>
          </mxGeometry>
        </mxCell>
        <mxCell id="990rHB7GM0mohYppXFXk-121" style="edgeStyle=orthogonalEdgeStyle;rounded=0;orthogonalLoop=1;jettySize=auto;html=1;endArrow=block;endFill=1;" edge="1" parent="990rHB7GM0mohYppXFXk-65" source="990rHB7GM0mohYppXFXk-88" target="990rHB7GM0mohYppXFXk-118">
          <mxGeometry relative="1" as="geometry">
            <Array as="points">
              <mxPoint x="238" y="420" />
              <mxPoint x="238" y="466" />
            </Array>
          </mxGeometry>
        </mxCell>
        <mxCell id="990rHB7GM0mohYppXFXk-88" value="MemberService" style="swimlane;fontStyle=1;align=center;verticalAlign=middle;childLayout=stackLayout;horizontal=1;startSize=29;horizontalStack=0;resizeParent=1;resizeParentMax=0;resizeLast=0;collapsible=0;marginBottom=0;html=1;whiteSpace=wrap;fillColor=#b1ddf0;strokeColor=#10739e;" vertex="1" parent="990rHB7GM0mohYppXFXk-65">
          <mxGeometry x="342.5" y="378" width="119" height="55" as="geometry" />
        </mxCell>
        <mxCell id="990rHB7GM0mohYppXFXk-97" style="edgeStyle=orthogonalEdgeStyle;rounded=0;orthogonalLoop=1;jettySize=auto;html=1;endArrow=block;endFill=1;" edge="1" parent="990rHB7GM0mohYppXFXk-65" source="990rHB7GM0mohYppXFXk-89" target="990rHB7GM0mohYppXFXk-93">
          <mxGeometry relative="1" as="geometry" />
        </mxCell>
        <mxCell id="990rHB7GM0mohYppXFXk-89" value="StoreService" style="swimlane;fontStyle=1;align=center;verticalAlign=middle;childLayout=stackLayout;horizontal=1;startSize=29;horizontalStack=0;resizeParent=1;resizeParentMax=0;resizeLast=0;collapsible=0;marginBottom=0;html=1;whiteSpace=wrap;fillColor=#b1ddf0;strokeColor=#10739e;" vertex="1" parent="990rHB7GM0mohYppXFXk-65">
          <mxGeometry x="342.5" y="466" width="119" height="55" as="geometry" />
        </mxCell>
        <mxCell id="990rHB7GM0mohYppXFXk-96" style="edgeStyle=orthogonalEdgeStyle;rounded=0;orthogonalLoop=1;jettySize=auto;html=1;endArrow=block;endFill=1;" edge="1" parent="990rHB7GM0mohYppXFXk-65" source="990rHB7GM0mohYppXFXk-90" target="990rHB7GM0mohYppXFXk-86">
          <mxGeometry relative="1" as="geometry">
            <Array as="points">
              <mxPoint x="186.5" y="320" />
              <mxPoint x="186.5" y="320" />
            </Array>
          </mxGeometry>
        </mxCell>
        <mxCell id="990rHB7GM0mohYppXFXk-90" value="NotificationService" style="swimlane;fontStyle=1;align=center;verticalAlign=middle;childLayout=stackLayout;horizontal=1;startSize=29;horizontalStack=0;resizeParent=1;resizeParentMax=0;resizeLast=0;collapsible=0;marginBottom=0;html=1;whiteSpace=wrap;fillColor=#b1ddf0;strokeColor=#10739e;" vertex="1" parent="990rHB7GM0mohYppXFXk-65">
          <mxGeometry x="342.5" y="297" width="119" height="55" as="geometry" />
        </mxCell>
        <mxCell id="990rHB7GM0mohYppXFXk-93" value="StoreController" style="ellipse;whiteSpace=wrap;html=1;dashed=1;fillColor=#f8cecc;strokeColor=#b85450;" vertex="1" parent="990rHB7GM0mohYppXFXk-65">
          <mxGeometry x="-3" y="506" width="117" height="32" as="geometry" />
        </mxCell>
        <mxCell id="990rHB7GM0mohYppXFXk-99" value="All services communicate with each other" style="shape=note2;boundedLbl=1;whiteSpace=wrap;html=1;size=25;verticalAlign=top;align=center;fillColor=#f5f5f5;strokeColor=#666666;fontColor=#333333;" vertex="1" parent="990rHB7GM0mohYppXFXk-65">
          <mxGeometry x="176.5" y="85" width="259" height="70" as="geometry" />
        </mxCell>
        <mxCell id="990rHB7GM0mohYppXFXk-100" value="ShoppingCartController" style="ellipse;whiteSpace=wrap;html=1;dashed=1;fillColor=#f8cecc;strokeColor=#b85450;" vertex="1" parent="990rHB7GM0mohYppXFXk-65">
          <mxGeometry x="-17.5" y="389.5" width="146" height="32" as="geometry" />
        </mxCell>
        <mxCell id="990rHB7GM0mohYppXFXk-118" value="PurchaseController" style="ellipse;whiteSpace=wrap;html=1;dashed=1;fillColor=#f8cecc;strokeColor=#b85450;" vertex="1" parent="990rHB7GM0mohYppXFXk-65">
          <mxGeometry x="-3" y="448" width="117" height="32" as="geometry" />
        </mxCell>
        <mxCell id="990rHB7GM0mohYppXFXk-123" style="edgeStyle=orthogonalEdgeStyle;rounded=0;orthogonalLoop=1;jettySize=auto;html=1;" edge="1" parent="990rHB7GM0mohYppXFXk-65" source="990rHB7GM0mohYppXFXk-122" target="990rHB7GM0mohYppXFXk-87">
          <mxGeometry relative="1" as="geometry">
            <Array as="points">
              <mxPoint x="527" y="368" />
              <mxPoint x="527" y="249" />
            </Array>
          </mxGeometry>
        </mxCell>
        <mxCell id="990rHB7GM0mohYppXFXk-124" style="edgeStyle=orthogonalEdgeStyle;rounded=0;orthogonalLoop=1;jettySize=auto;html=1;" edge="1" parent="990rHB7GM0mohYppXFXk-65" source="990rHB7GM0mohYppXFXk-122" target="990rHB7GM0mohYppXFXk-90">
          <mxGeometry relative="1" as="geometry">
            <Array as="points">
              <mxPoint x="527" y="368" />
              <mxPoint x="527" y="325" />
            </Array>
          </mxGeometry>
        </mxCell>
        <mxCell id="990rHB7GM0mohYppXFXk-125" style="edgeStyle=orthogonalEdgeStyle;rounded=0;orthogonalLoop=1;jettySize=auto;html=1;" edge="1" parent="990rHB7GM0mohYppXFXk-65" source="990rHB7GM0mohYppXFXk-122" target="990rHB7GM0mohYppXFXk-88">
          <mxGeometry relative="1" as="geometry">
            <Array as="points">
              <mxPoint x="527" y="368" />
              <mxPoint x="527" y="406" />
            </Array>
          </mxGeometry>
        </mxCell>
        <mxCell id="990rHB7GM0mohYppXFXk-126" style="edgeStyle=orthogonalEdgeStyle;rounded=0;orthogonalLoop=1;jettySize=auto;html=1;" edge="1" parent="990rHB7GM0mohYppXFXk-65" source="990rHB7GM0mohYppXFXk-122" target="990rHB7GM0mohYppXFXk-89">
          <mxGeometry relative="1" as="geometry">
            <Array as="points">
              <mxPoint x="527" y="368" />
              <mxPoint x="527" y="494" />
            </Array>
          </mxGeometry>
        </mxCell>
        <mxCell id="990rHB7GM0mohYppXFXk-129" style="edgeStyle=orthogonalEdgeStyle;rounded=0;orthogonalLoop=1;jettySize=auto;html=1;" edge="1" parent="990rHB7GM0mohYppXFXk-65" source="990rHB7GM0mohYppXFXk-122" target="990rHB7GM0mohYppXFXk-127">
          <mxGeometry relative="1" as="geometry">
            <Array as="points">
              <mxPoint x="527" y="368" />
              <mxPoint x="527" y="581" />
            </Array>
          </mxGeometry>
        </mxCell>
        <mxCell id="990rHB7GM0mohYppXFXk-130" style="edgeStyle=orthogonalEdgeStyle;rounded=0;orthogonalLoop=1;jettySize=auto;html=1;" edge="1" parent="990rHB7GM0mohYppXFXk-65" source="990rHB7GM0mohYppXFXk-122" target="990rHB7GM0mohYppXFXk-128">
          <mxGeometry relative="1" as="geometry">
            <Array as="points">
              <mxPoint x="527" y="368" />
              <mxPoint x="527" y="669" />
            </Array>
          </mxGeometry>
        </mxCell>
        <mxCell id="990rHB7GM0mohYppXFXk-122" value="Gateway&lt;br&gt;&lt;i&gt;(FACADE)&lt;/i&gt;" style="swimlane;fontStyle=1;align=center;verticalAlign=middle;childLayout=stackLayout;horizontal=1;startSize=29;horizontalStack=0;resizeParent=1;resizeParentMax=0;resizeLast=0;collapsible=0;marginBottom=0;html=1;whiteSpace=wrap;fillColor=#b1ddf0;strokeColor=#10739e;" vertex="1" parent="990rHB7GM0mohYppXFXk-65">
          <mxGeometry x="567" y="342" width="109" height="55" as="geometry" />
        </mxCell>
        <mxCell id="990rHB7GM0mohYppXFXk-127" value="BillingService&lt;br&gt;(Adapter)" style="swimlane;fontStyle=1;align=center;verticalAlign=middle;childLayout=stackLayout;horizontal=1;startSize=29;horizontalStack=0;resizeParent=1;resizeParentMax=0;resizeLast=0;collapsible=0;marginBottom=0;html=1;whiteSpace=wrap;fillColor=#b1ddf0;strokeColor=#10739e;" vertex="1" parent="990rHB7GM0mohYppXFXk-65">
          <mxGeometry x="342.5" y="554" width="119" height="55" as="geometry" />
        </mxCell>
        <mxCell id="990rHB7GM0mohYppXFXk-128" value="DeliveryService&lt;br&gt;(Adapter)" style="swimlane;fontStyle=1;align=center;verticalAlign=middle;childLayout=stackLayout;horizontal=1;startSize=29;horizontalStack=0;resizeParent=1;resizeParentMax=0;resizeLast=0;collapsible=0;marginBottom=0;html=1;whiteSpace=wrap;fillColor=#b1ddf0;strokeColor=#10739e;" vertex="1" parent="990rHB7GM0mohYppXFXk-65">
          <mxGeometry x="340" y="642" width="119" height="55" as="geometry" />
        </mxCell>
      </root>
    </mxGraphModel>
  </diagram>
</mxfile>
